<svg xmlns="http://www.w3.org/2000/svg" width="400" height="281.25" display="block"><path fill="rgba(0, 100, 0, 0.2)" fill-rule="evenodd" d="M72.011 6.329c0 .319-.344.422-1.406.422-1.063 0-1.407.103-1.407.422 0 .281-.281.422-.844.422-.562 0-.843.141-.843.422 0 .284-.285.422-.871.422-.633 0-.91.153-1.017.562-.104.399-.384.563-.958.563-.534 0-.811.144-.811.422 0 .232-.19.422-.422.422-.232 0-.422.19-.422.422 0 .232-.19.422-.422.422-.232 0-.422.19-.422.422 0 .294-.297.422-.985.422-.687 0-.984.127-.984.422 0 .232-.19.422-.422.422-.232 0-.422.189-.422.421 0 .233-.19.422-.422.422-.234 0-.422.25-.422.563 0 .313-.187.563-.422.563-.232 0-.422.189-.422.422 0 .232-.19.421-.422.421-.232 0-.422.19-.422.422 0 .232-.189.422-.422.422-.232 0-.422.19-.422.422 0 .235-.25.422-.562.422-.313 0-.563.188-.563.422 0 .232-.19.422-.422.422-.232 0-.422.19-.422.422 0 .232-.189.422-.422.422-.234 0-.421.25-.421.563 0 .312-.188.562-.422.562-.232 0-.422.19-.422.422 0 .232-.19.422-.422.422-.232 0-.422.19-.422.422 0 .232-.19.422-.422.422-.232 0-.422.19-.422.422 0 .232-.238.422-.53.422-.302 0-.596.254-.684.591-.085.325-.29.507-.455.405-.165-.102-.3.012-.3.253s-.19.439-.422.439c-.295 0-.422.296-.422.984s-.127.985-.422.985c-.232 0-.422.19-.422.422 0 .232-.19.422-.422.422-.232 0-.422.189-.422.421 0 .235-.25.422-.562.422-.31 0-.563.177-.563.392 0 .216-.19.465-.422.554-.232.089-.422.356-.422.593s-.19.43-.422.43c-.281 0-.422.282-.422.844 0 .563-.14.844-.422.844-.232 0-.422.19-.422.422 0 .232-.189.422-.422.422-.232 0-.421.19-.421.422 0 .232-.19.422-.422.422-.233 0-.422.159-.422.354 0 .195-.254.513-.563.706-.318.198-.563.656-.563 1.052 0 .436-.159.701-.421.701-.233 0-.422.19-.422.422 0 .232-.19.422-.422.422-.282 0-.422.281-.422.844 0 .562-.141.844-.422.844-.232 0-.422.189-.422.422 0 .232-.19.421-.422.421-.235 0-.422.25-.422.563 0 .313-.188.563-.422.563-.281 0-.422.281-.422.844 0 .656-.125.843-.563.843-.312 0-.562.188-.562.422 0 .232-.19.422-.422.422-.295 0-.422.297-.422.985 0 .687-.127.984-.422.984-.232 0-.422.19-.422.422 0 .232-.19.422-.422.422-.281 0-.422.282-.422.844 0 .563-.14.844-.422.844-.232 0-.422.19-.422.422 0 .232-.19.422-.422.422-.294 0-.422.297-.422.984 0 .797-.107.985-.562.985-.438 0-.563.187-.563.844 0 .562-.14.844-.422.844-.232 0-.422.19-.422.422 0 .232-.189.422-.422.422-.281 0-.421.281-.421.843 0 .563-.141.844-.422.844-.295 0-.422.297-.422.985 0 .687-.128.984-.422.984-.282 0-.422.282-.422.844 0 .657-.125.844-.563.844-.433 0-.562.188-.562.814 0 .464-.182.883-.422.976-.247.094-.422.516-.422 1.014 0 .571-.14.853-.422.853s-.422.281-.422.844c0 .562-.141.844-.422.844-.295 0-.422.297-.422.984 0 .688-.127.985-.422.985-.281 0-.422.281-.422.844 0 .562-.141.844-.422.844s-.422.281-.422.843c0 .657-.125.844-.562.844-.456 0-.563.188-.563.985 0 .687-.127.984-.422.984-.313 0-.422.329-.422 1.266 0 .938-.109 1.266-.422 1.266-.281 0-.422.281-.422.844 0 .562-.14.844-.422.844-.319 0-.422.344-.422 1.406 0 1.063-.103 1.407-.422 1.407-.312 0-.422.328-.422 1.266 0 .937-.109 1.265-.421 1.265-.319 0-.422.344-.422 1.407 0 1.219-.075 1.406-.563 1.406-.488 0-.563.188-.563 1.407 0 1.062-.103 1.406-.422 1.406-.312 0-.421.328-.421 1.266s-.11 1.266-.422 1.266c-.332 0-.422.391-.422 1.828 0 1.438-.091 1.829-.422 1.829-.313 0-.422.328-.422 1.266 0 .937-.11 1.265-.422 1.265-.34 0-.422.438-.422 2.251 0 1.812-.082 2.25-.422 2.25-.34 0-.422.438-.422 2.25 0 2.063-.047 2.251-.563 2.251-.515 0-.562.187-.562 2.22 0 1.714-.096 2.257-.422 2.382-.343.132-.422.798-.422 3.546 0 2.821-.07 3.385-.422 3.385-.36 0-.422.781-.422 5.344 0 4.564-.062 5.345-.422 5.345-.367 0-.422 1.281-.422 9.845s.055 9.846.422 9.846c.362 0 .422.875.422 6.188s.06 6.188.422 6.188c.355 0 .422.627.422 3.947 0 3.249.075 3.976.422 4.109.333.128.422.715.422 2.804 0 2.455.04 2.643.562 2.643.524 0 .563.187.563 2.672 0 2.188.076 2.672.422 2.672.332 0 .422.391.422 1.829 0 1.437.09 1.828.422 1.828.34 0 .422.438.422 2.25 0 1.813.082 2.251.422 2.251.328 0 .422.375.422 1.687 0 1.313.093 1.688.422 1.688.318 0 .422.344.422 1.407 0 1.062.103 1.406.421 1.406.324 0 .422.359.422 1.545 0 1.24.111 1.614.563 1.896.42.262.563.656.563 1.549 0 .878.113 1.199.422 1.199.318 0 .421.343.421 1.406s.104 1.407.422 1.407c.313 0 .422.328.422 1.265 0 .938.11 1.266.422 1.266.295 0 .422.297.422.985 0 .687.127.984.422.984.313 0 .422.328.422 1.266s.109 1.266.422 1.266c.281 0 .422.281.422.844 0 .656.125.844.563.844.487 0 .562.187.562 1.406 0 1.063.103 1.407.422 1.407.281 0 .422.281.422.844 0 .562.141.843.422.843.295 0 .422.297.422.985s.127.984.422.984c.281 0 .422.282.422.844 0 .563.14.844.422.844.281 0 .422.282.422.844 0 .563.14.844.422.844.294 0 .422.297.422.985 0 .797.107.984.562.984.438 0 .563.188.563.844 0 .563.14.844.422.844.281 0 .422.281.422.844 0 .562.14.844.422.844.294 0 .422.296.422.984s.127.985.421.985c.282 0 .422.281.422.844 0 .562.141.843.422.843.282 0 .422.282.422.844 0 .657.125.844.563.844.375 0 .562.188.562.563 0 .312.188.562.422.562.282 0 .422.282.422.844 0 .563.141.844.422.844.282 0 .422.281.422.844s.141.844.422.844c.235 0 .422.25.422.562 0 .313.188.563.422.563.281 0 .422.281.422.844s.141.844.422.844c.232 0 .422.19.422.422 0 .234.25.422.562.422.438 0 .563.187.563.844 0 .562.141.843.422.843.234 0 .422.25.422.563 0 .313.187.563.422.563.232 0 .422.189.422.422 0 .232.19.422.422.422.281 0 .422.281.422.843 0 .563.14.844.422.844.232 0 .422.19.422.422 0 .232.189.422.422.422.262 0 .421.266.421.701 0 .396.245.854.563 1.052.309.193.563.511.563.706 0 .195.189.354.422.354.232 0 .422.19.422.422 0 .232.189.422.421.422.233 0 .422.19.422.422 0 .232.19.422.422.422.282 0 .422.281.422.844 0 .562.141.844.422.844.232 0 .422.193.422.43s.19.504.422.593c.232.089.422.338.422.554 0 .215.253.392.563.392.437 0 .562.187.562.844 0 .562.141.843.422.843.232 0 .422.19.422.422 0 .232.19.422.422.422.234 0 .422.25.422.563 0 .312.188.562.422.562.232 0 .422.19.422.422 0 .233.19.422.422.422.232 0 .422.19.422.422 0 .235.25.422.562.422.438 0 .563.188.563.844 0 .563.141.844.422.844.232 0 .422.19.422.422 0 .232.19.422.422.422.234 0 .422.25.422.562 0 .313.187.563.422.563.232 0 .422.19.422.422 0 .232.189.422.421.422.233 0 .422.19.422.422 0 .232.19.422.422.422.232 0 .422.19.422.422 0 .234.25.422.563.422.312 0 .562.187.562.422 0 .232.19.422.422.422.233 0 .422.189.422.422 0 .232.19.421.422.421.235 0 .422.251.422.563 0 .31.158.568.352.575.193.006.662.386 1.042.843.463.559.948.832 1.476.832.512 0 .787.148.787.422 0 .232.19.422.422.422.232 0 .422.19.422.422 0 .232.19.422.422.422.232 0 .422.19.422.422 0 .281.281.422.844.422.553 0 .844.142.844.412 0 .227.256.55.57.717.314.168.496.426.405.573-.092.15.276.267.836.267.703 0 1.002.126 1.002.422 0 .281.281.422.843.422.563 0 .844.141.844.422 0 .357.688.422 4.501.422 3.813 0 4.501-.065 4.501-.422 0-.232.19-.422.422-.422.232 0 .422-.19.422-.422 0-.281.281-.422.843-.422.777 0 .844-.078.844-.984 0-.688.128-.985.422-.985.282 0 .422-.281.422-.844 0-.656.125-.844.563-.844.528 0 .562-.187.562-3.094s-.034-3.094-.562-3.094c-.438 0-.563-.188-.563-.844 0-.563-.14-.844-.422-.844-.294 0-.422-.297-.422-.984 0-.688-.127-.985-.422-.985-.232 0-.422-.19-.422-.422 0-.232-.189-.422-.421-.422-.282 0-.422-.281-.422-.844 0-.562-.141-.844-.422-.844-.232 0-.422-.189-.422-.422 0-.232-.19-.422-.422-.422-.232 0-.422-.189-.422-.421 0-.235-.25-.422-.563-.422-.375 0-.562-.188-.562-.563 0-.313-.188-.563-.422-.563-.232 0-.422-.189-.422-.422 0-.232-.19-.421-.422-.421-.232 0-.422-.19-.422-.422 0-.232-.19-.422-.422-.422-.232 0-.422-.19-.422-.422 0-.232-.19-.422-.422-.422-.232 0-.422-.19-.422-.422 0-.232-.19-.422-.422-.422-.232 0-.422-.202-.422-.448 0-.247-.253-.515-.562-.596-.31-.081-.563-.322-.563-.536 0-.214-.19-.389-.422-.389-.232 0-.422-.19-.422-.422 0-.232-.19-.422-.422-.422-.232 0-.422-.19-.422-.422 0-.232-.19-.422-.422-.422-.232 0-.422-.19-.422-.422 0-.232-.189-.422-.422-.422-.232 0-.421-.19-.421-.422 0-.234-.25-.422-.563-.422-.375 0-.563-.187-.563-.562 0-.313-.187-.563-.422-.563-.232 0-.422-.19-.422-.422 0-.232-.189-.422-.421-.422-.233 0-.422-.19-.422-.422 0-.232-.19-.422-.422-.422-.232 0-.422-.189-.422-.422 0-.232-.19-.421-.422-.421-.282 0-.422-.282-.422-.844 0-.465-.121-.844-.269-.844-.349 0-1.7-1.352-1.7-1.701 0-.147-.19-.268-.422-.268-.232 0-.422-.19-.422-.422 0-.232-.19-.422-.422-.422-.232 0-.422-.19-.422-.422 0-.232-.19-.422-.422-.422-.281 0-.422-.281-.422-.844s-.141-.844-.422-.844c-.234 0-.422-.25-.422-.562 0-.313-.187-.563-.422-.563-.232 0-.422-.19-.422-.422 0-.234-.25-.422-.562-.422-.438 0-.563-.187-.563-.844 0-.562-.14-.844-.422-.844-.232 0-.422-.19-.422-.422 0-.232-.19-.422-.422-.422-.234 0-.422-.25-.422-.562 0-.313-.187-.563-.422-.563-.281 0-.421-.281-.421-.844 0-.562-.141-.843-.422-.843-.232 0-.422-.19-.422-.422 0-.232-.19-.422-.422-.422-.282 0-.422-.282-.422-.844 0-.657-.125-.844-.563-.844-.375 0-.562-.188-.562-.563 0-.312-.188-.562-.422-.562-.282 0-.422-.282-.422-.844 0-.563-.141-.844-.422-.844s-.422-.281-.422-.844-.141-.844-.422-.844c-.232 0-.422-.19-.422-.422 0-.232-.19-.422-.422-.422-.295 0-.422-.297-.422-.984 0-.797-.107-.985-.562-.985-.438 0-.563-.187-.563-.844 0-.562-.141-.844-.422-.844s-.422-.281-.422-.843c0-.563-.141-.844-.422-.844-.295 0-.422-.297-.422-.985 0-.687-.127-.984-.422-.984-.281 0-.422-.282-.422-.844 0-.563-.14-.844-.422-.844-.296 0-.422-.299-.422-1.001 0-.551-.117-.929-.261-.84-.34.21-.57-.177-.645-1.088-.04-.488-.225-.728-.561-.728-.37 0-.502-.222-.502-.844 0-.562-.14-.844-.422-.844-.294 0-.422-.297-.422-.984 0-.688-.127-.985-.421-.985-.313 0-.422-.328-.422-1.266 0-.937-.11-1.265-.422-1.265-.282 0-.422-.282-.422-.844 0-.563-.141-.844-.422-.844-.313 0-.422-.329-.422-1.275 0-.873-.133-1.325-.422-1.436-.241-.093-.422-.512-.422-.976 0-.626-.13-.814-.563-.814-.487 0-.562-.187-.562-1.406 0-1.063-.103-1.407-.422-1.407-.332 0-.422-.391-.422-1.828 0-1.438-.09-1.829-.422-1.829-.313 0-.422-.328-.422-1.265 0-.938-.109-1.266-.422-1.266-.332 0-.422-.391-.422-1.829 0-1.437-.09-1.828-.422-1.828-.328 0-.422-.375-.422-1.688s-.094-1.688-.422-1.688c-.332 0-.422-.39-.422-1.828 0-1.641-.057-1.828-.562-1.828-.516 0-.563-.188-.563-2.251 0-1.813-.082-2.25-.422-2.25-.345 0-.422-.485-.422-2.672 0-2.188-.076-2.673-.422-2.673-.352 0-.422-.578-.422-3.516s-.069-3.516-.422-3.516c-.361 0-.421-.844-.421-5.907 0-5.064-.061-5.907-.422-5.907-.367 0-.422-1.172-.422-8.861 0-7.689.055-8.861.422-8.861.36 0 .422-.797.422-5.485 0-4.688.061-5.485.421-5.485.35 0 .422-.532.422-3.095s.073-3.094.422-3.094c.346 0 .422-.484.422-2.672s.077-2.672.422-2.672c.332 0 .422-.391.422-1.829 0-1.641.058-1.828.563-1.828.512 0 .562-.188.562-2.08 0-1.589.1-2.118.422-2.241.287-.111.422-.56.422-1.407s.135-1.296.422-1.406c.311-.12.422-.61.422-1.859 0-1.32.094-1.696.422-1.696.313 0 .422-.329.422-1.266 0-.938.109-1.266.422-1.266.319 0 .422-.344.422-1.407 0-1.062.103-1.406.422-1.406.312 0 .422-.328.422-1.266 0-1.078.083-1.266.562-1.266.456 0 .563-.187.563-.984 0-.688.127-.985.422-.985.312 0 .422-.328.422-1.266 0-.937.109-1.265.422-1.265.281 0 .422-.282.422-.844 0-.563.14-.844.422-.844.294 0 .422-.297.422-.985 0-.687.127-.984.422-.984.312 0 .421-.328.421-1.266s.11-1.266.422-1.266c.295 0 .422-.297.422-.984 0-.797.107-.985.563-.985.437 0 .563-.187.563-.844 0-.562.14-.844.421-.844.282 0 .422-.281.422-.844 0-.562.141-.843.422-.843.232 0 .422-.19.422-.422 0-.232.19-.422.422-.422.295 0 .422-.297.422-.985 0-.687.127-.984.422-.984.281 0 .422-.282.422-.844 0-.563.141-.844.422-.844.295 0 .422-.297.422-.985 0-.797.107-.984.563-.984.312 0 .562-.188.562-.422 0-.232.19-.422.422-.422.281 0 .422-.281.422-.844s.141-.844.422-.844.422-.281.422-.844c0-.562.141-.844.422-.844.234 0 .422-.25.422-.562 0-.313.187-.563.422-.563.281 0 .422-.281.422-.844 0-.656.125-.844.562-.844.313 0 .563-.187.563-.422 0-.232.19-.421.422-.421.232 0 .422-.19.422-.422 0-.232.19-.422.422-.422.294 0 .422-.297.422-.985 0-.687.127-.984.421-.984.233 0 .422-.19.422-.422 0-.232.19-.422.422-.422.282 0 .422-.282.422-.844 0-.563.141-.844.422-.844.232 0 .422-.19.422-.422 0-.232.202-.422.448-.422.247 0 .515-.253.596-.562.081-.31.322-.563.536-.563.214 0 .389-.19.389-.422 0-.232.19-.422.422-.422.281 0 .422-.281.422-.844 0-.562.141-.844.422-.844.232 0 .422-.19.422-.422 0-.232.19-.422.422-.422.232 0 .422-.189.422-.422 0-.232.19-.421.422-.421.234 0 .422-.251.422-.563 0-.375.187-.563.562-.563.313 0 .563-.187.563-.422 0-.232.19-.422.422-.422.232 0 .422-.189.422-.421 0-.233.19-.422.422-.422.281 0 .422-.282.422-.844 0-.563.14-.844.422-.844.232 0 .422-.19.422-.422 0-.232.189-.422.422-.422.234 0 .421-.25.421-.563 0-.312.188-.562.422-.562.232 0 .422-.19.422-.422 0-.235.25-.422.563-.422.313 0 .563-.188.563-.422 0-.232.189-.422.421-.422.233 0 .422-.19.422-.422 0-.232.19-.422.422-.422.232 0 .422-.19.422-.422 0-.232.19-.422.422-.422.232 0 .422-.19.422-.422 0-.232.19-.422.422-.422.235 0 .422-.25.422-.562 0-.375.188-.563.563-.563.312 0 .562-.187.562-.422 0-.232.19-.422.422-.422.232 0 .422-.19.422-.422 0-.232.19-.422.422-.422.232 0 .422-.189.422-.422 0-.232.19-.421.422-.421.232 0 .422-.19.422-.422 0-.232.19-.422.422-.422.234 0 .422-.25.422-.563 0-.313.187-.563.422-.563.232 0 .422-.189.422-.421 0-.235.25-.422.562-.422.313 0 .563-.188.563-.422 0-.232.19-.422.422-.422.232 0 .422-.19.422-.422 0-.232.19-.422.422-.422.281 0 .422-.281.422-.844s.14-.844.422-.844c.234 0 .421-.25.421-.563 0-.312.188-.562.422-.562.282 0 .422-.281.422-.844s.141-.844.422-.844c.282 0 .422-.281.422-.844 0-.656.125-.844.563-.844.523 0 .562-.187.562-2.672 0-2.485-.039-2.672-.562-2.672-.438 0-.563-.188-.563-.844 0-.563-.14-.844-.422-.844-.234 0-.422-.25-.422-.563 0-.309-.176-.562-.391-.562-.216 0-.465-.19-.554-.422-.089-.232-.483-.422-.874-.422-.446 0-.712-.158-.712-.422 0-.319-.344-.422-1.407-.422-1.062 0-1.406-.103-1.406-.422 0-.328-.375-.422-1.688-.422s-1.688.094-1.688.422m251.758.844c0 .296-.298.422-1.001.422-.638 0-.934.109-.815.3.102.165-.08.37-.406.455-.336.088-.591.383-.591.684 0 .292-.189.53-.422.53-.281 0-.421.281-.421.844 0 .562-.141.844-.422.844-.313 0-.422.328-.422 1.266 0 .937-.11 1.265-.422 1.265-.319 0-.422.344-.422 1.407 0 1.063.103 1.406.422 1.406.312 0 .422.329.422 1.266 0 .938.109 1.266.422 1.266.294 0 .422.297.422.985 0 .687.127.984.421.984.282 0 .422.281.422.844s.141.844.422.844c.232 0 .422.19.422.422 0 .234.25.422.563.422.312 0 .562.187.562.422 0 .232.19.422.422.422.295 0 .422.296.422.984 0 .542.123.985.272.985.354 0 2.26 1.905 2.26 2.259 0 .15.253.272.563.272.312 0 .562.188.562.422 0 .232.19.422.422.422.235 0 .422.25.422.563 0 .312.188.562.422.562.232 0 .422.19.422.422 0 .232.122.422.272.422.354 0 2.26 1.906 2.26 2.26 0 .149.253.272.562.272.313 0 .563.187.563.422 0 .232.19.422.422.422.234 0 .422.25.422.562 0 .313.187.563.422.563.232 0 .422.19.422.422 0 .232.189.422.421.422.233 0 .422.19.422.422 0 .232.19.422.422.422.232 0 .422.19.422.422 0 .232.19.422.422.422.232 0 .422.189.422.422 0 .234.25.421.563.421.312 0 .562.188.562.422 0 .232.19.422.422.422.235 0 .422.25.422.563 0 .312.188.563.422.563.281 0 .422.281.422.843 0 .563.141.844.422.844.232 0 .422.19.422.422 0 .232.19.422.422.422.232 0 .422.19.422.422 0 .232.19.422.422.422.232 0 .422.19.422.422 0 .234.25.422.562.422.456 0 .563.187.563.984 0 .688.127.985.422.985.232 0 .422.19.422.422 0 .232.19.422.422.422.232 0 .422.19.422.422 0 .232.19.422.422.422.296 0 .422.299.422 1.001 0 .638.108.934.3.815.165-.102.369.08.455.406.088.336.382.591.684.591.291 0 .53.19.53.422 0 .232.189.422.422.422.281 0 .422.281.422.843 0 .563.14.844.421.844.233 0 .422.19.422.422 0 .232.19.422.422.422.295 0 .422.297.422.985 0 .687.128.984.422.984.232 0 .422.19.422.422 0 .232.19.422.422.422.281 0 .422.281.422.844 0 .656.125.844.563.844.455 0 .562.187.562.984 0 .688.127.985.422.985.232 0 .422.19.422.422 0 .232.19.422.422.422.281 0 .422.281.422.844 0 .562.141.844.422.844.295 0 .422.297.422.984 0 .688.127.985.422.985.281 0 .422.281.422.844 0 .562.14.843.422.843.281 0 .422.282.422.844 0 .657.125.844.562.844.456 0 .563.188.563.985 0 .687.127.984.422.984.281 0 .422.282.422.844 0 .563.14.844.422.844.281 0 .422.281.422.844 0 .562.14.844.421.844.295 0 .422.297.422.984 0 .688.128.985.422.985.313 0 .422.328.422 1.266 0 .937.11 1.265.422 1.265.282 0 .422.282.422.844 0 .657.125.844.563.844.487 0 .562.188.562 1.407 0 1.062.104 1.406.422 1.406.282 0 .422.281.422.844s.141.844.422.844c.319 0 .422.344.422 1.406 0 1.063.103 1.407.422 1.407.313 0 .422.328.422 1.266 0 .937.109 1.266.422 1.266.332 0 .422.39.422 1.828 0 1.641.058 1.828.562 1.828.488 0 .563.188.563 1.407 0 1.062.103 1.406.422 1.406.328 0 .422.375.422 1.688s.094 1.688.422 1.688c.332 0 .422.391.422 1.828 0 1.438.09 1.829.422 1.829.34 0 .422.437.422 2.25s.082 2.25.422 2.25c.344 0 .422.47.422 2.541 0 1.999.09 2.575.422 2.702.333.128.421.715.421 2.804 0 2.455.04 2.643.563 2.643.539 0 .563.187.563 4.5 0 3.813.064 4.501.422 4.501.369 0 .422 1.875.422 15.19 0 13.314-.053 15.19-.422 15.19-.355 0-.422.621-.422 3.905 0 3.643-.037 3.915-.552 4.05-.491.128-.561.435-.633 2.775-.059 1.921-.176 2.612-.433 2.561-.258-.052-.351.53-.351 2.18 0 1.813-.082 2.25-.422 2.25-.34 0-.422.438-.422 2.251 0 1.812-.082 2.25-.422 2.25-.332 0-.422.391-.422 1.828 0 1.438-.09 1.829-.422 1.829-.332 0-.422.39-.422 1.828 0 1.438-.09 1.829-.422 1.829-.313 0-.422.328-.422 1.265 0 1.079-.083 1.266-.563 1.266-.487 0-.562.188-.562 1.407 0 1.062-.103 1.406-.422 1.406-.313 0-.422.328-.422 1.266s-.109 1.266-.422 1.266c-.295 0-.422.297-.422.984 0 .688-.127.985-.422.985-.312 0-.422.328-.422 1.266 0 .937-.109 1.265-.422 1.265-.273 0-.422.274-.422.777 0 .471-.22.914-.562 1.127-.41.256-.563.656-.563 1.474 0 .811-.117 1.123-.422 1.123-.281 0-.422.281-.422.844s-.14.844-.422.844c-.294 0-.422.297-.422.984 0 .688-.127.985-.422.985-.281 0-.421.281-.421.844 0 .562-.141.844-.422.844-.282 0-.422.281-.422.844 0 .562-.141.844-.422.844-.295 0-.422.296-.422.984 0 .797-.107.985-.563.985-.437 0-.562.187-.562.843 0 .563-.141.844-.422.844-.282 0-.422.282-.422.844 0 .563-.141.844-.422.844-.235 0-.422.25-.422.563 0 .312-.188.562-.422.562-.281 0-.422.282-.422.844 0 .563-.141.844-.422.844s-.422.281-.422.844-.141.844-.422.844c-.232 0-.422.159-.422.354 0 .195-.253.512-.562.706-.318.198-.563.656-.563 1.052 0 .435-.16.701-.422.701-.232 0-.422.19-.422.422 0 .232-.19.422-.422.422-.281 0-.422.281-.422.844 0 .562-.14.843-.422.843-.232 0-.422.19-.422.422 0 .232-.189.422-.422.422-.294 0-.421.297-.421.985 0 .687-.128.984-.422.984-.233 0-.422.19-.422.422 0 .235-.25.422-.563.422-.313 0-.563.188-.563.422 0 .232-.189.422-.421.422-.295 0-.422.297-.422.985 0 .687-.128.984-.422.984-.232 0-.422.19-.422.422 0 .232-.19.422-.422.422-.232 0-.422.19-.422.422 0 .232-.19.422-.422.422-.281 0-.422.281-.422.844 0 .656-.125.844-.563.844-.312 0-.562.187-.562.422 0 .232-.19.422-.422.422-.235 0-.422.25-.422.562 0 .313-.188.563-.422.563-.232 0-.422.19-.422.422 0 .232-.19.422-.422.422-.232 0-.422.189-.422.422 0 .232-.19.422-.422.422-.232 0-.422.189-.422.421 0 .233-.19.422-.422.422-.277 0-.422.278-.422.811 0 .575-.164.854-.562.959-.31.081-.563.348-.563.595s-.19.448-.422.448c-.232 0-.422.19-.422.422 0 .232-.19.422-.422.422-.232 0-.422.19-.422.422 0 .232-.189.422-.422.422-.232 0-.421.19-.421.422 0 .232-.19.422-.422.422-.232 0-.422.19-.422.422 0 .232-.19.422-.422.422-.232 0-.422.175-.422.389 0 .214-.253.455-.563.536-.309.081-.562.349-.562.596 0 .246-.19.448-.422.448-.232 0-.422.19-.422.422 0 .232-.19.422-.422.422-.232 0-.422.19-.422.422 0 .232-.19.422-.422.422-.232 0-.422.19-.422.422 0 .232-.19.422-.422.422-.232 0-.422.189-.422.421 0 .233-.19.422-.422.422-.234 0-.422.25-.422.563 0 .375-.187.563-.562.563-.313 0-.563.187-.563.422 0 .232-.19.421-.422.421-.232 0-.422.19-.422.422 0 .233-.19.422-.422.422-.232 0-.422.19-.422.422 0 .232-.19.422-.422.422-.232 0-.422.19-.422.422 0 .232-.19.422-.422.422-.294 0-.422.297-.422.985 0 .797-.107.984-.562.984-.313 0-.563.188-.563.422 0 .232-.19.422-.422.422-.232 0-.422.176-.422.392 0 .215-.189.465-.422.554-.232.089-.421.482-.421.874 0 .445-.158.712-.422.712-.319 0-.422.344-.422 1.406 0 1.063-.104 1.407-.422 1.407-.313 0-.422.328-.422 1.265 0 .938.109 1.266.422 1.266.318 0 .422.344.422 1.407 0 1.062.103 1.406.422 1.406.232 0 .422.19.422.422 0 .232.189.422.421.422.233 0 .422.19.422.422 0 .232.19.422.422.422.232 0 .422.19.422.422 0 .295.297.422.985.422.687 0 .984.127.984.422 0 .355.625.422 3.938.422s3.939-.067 3.939-.422c0-.295.296-.422.984-.422s.985-.127.985-.422c0-.281.281-.422.844-.422.562 0 .843-.141.843-.422s.282-.422.844-.422c.563 0 .844-.141.844-.422 0-.232.19-.422.422-.422.235 0 .422-.25.422-.562 0-.456.188-.563.985-.563.687 0 .984-.127.984-.422 0-.232.19-.422.422-.422.232 0 .422-.19.422-.422 0-.232.19-.422.422-.422.232 0 .422-.19.422-.422 0-.232.19-.422.422-.422.232 0 .422-.189.422-.422 0-.232.19-.421.422-.421.232 0 .422-.176.422-.39 0-.214.253-.455.562-.536.31-.081.563-.349.563-.595 0-.247.19-.449.422-.449.232 0 .422-.189.422-.421 0-.233.19-.422.422-.422.232 0 .422-.19.422-.422 0-.232.189-.422.422-.422.232 0 .421-.19.421-.422 0-.232.19-.422.422-.422.232 0 .422-.19.422-.422 0-.232.19-.422.422-.422.232 0 .422-.175.422-.389 0-.214.253-.456.563-.536.309-.081.562-.349.562-.596 0-.246.19-.448.422-.448.232 0 .422-.19.422-.422 0-.232.19-.422.422-.422.232 0 .422-.19.422-.422 0-.232.19-.422.422-.422.232 0 .422-.19.422-.422 0-.232.19-.422.422-.422.232 0 .422-.159.422-.354 0-.195.253-.512.562-.706.319-.198.563-.656.563-1.052 0-.435.16-.701.422-.701.232 0 .422-.19.422-.422 0-.232.19-.422.422-.422.232 0 .422-.189.422-.422 0-.232.19-.421.422-.421.232 0 .422-.19.422-.422 0-.232.19-.422.422-.422.232 0 .422-.19.422-.422 0-.232.189-.422.422-.422.294 0 .421-.297.421-.985 0-.797.108-.984.563-.984.313 0 .563-.188.563-.422 0-.232.19-.422.422-.422.232 0 .422-.19.422-.422 0-.232.189-.422.421-.422.282 0 .422-.281.422-.844 0-.562.141-.844.422-.844.235 0 .422-.25.422-.562 0-.313.188-.563.422-.563.232 0 .422-.19.422-.422 0-.232.19-.422.422-.422.281 0 .422-.281.422-.844 0-.656.125-.844.563-.844.312 0 .562-.187.562-.422 0-.232.19-.421.422-.421.232 0 .422-.19.422-.422 0-.233.19-.422.422-.422.295 0 .422-.297.422-.985s.127-.984.422-.984c.232 0 .422-.19.422-.422 0-.232.19-.422.422-.422.281 0 .422-.282.422-.844 0-.563.14-.844.422-.844.232 0 .422-.16.422-.354 0-.195.253-.513.562-.706.318-.199.563-.656.563-1.052 0-.436.16-.701.422-.701.281 0 .422-.281.422-.844 0-.562.14-.844.422-.844.232 0 .422-.19.422-.422 0-.232.189-.422.422-.422.294 0 .421-.297.421-.984 0-.688.128-.985.422-.985.282 0 .422-.281.422-.844 0-.656.125-.843.563-.843.313 0 .563-.188.563-.422 0-.232.189-.422.421-.422.295 0 .422-.297.422-.985s.128-.984.422-.984c.282 0 .422-.282.422-.844 0-.563.141-.844.422-.844.282 0 .422-.281.422-.844s.141-.844.422-.844c.295 0 .422-.297.422-.984 0-.688.127-.985.422-.985.281 0 .422-.281.422-.844 0-.656.125-.844.563-.844.437 0 .562-.187.562-.844 0-.562.141-.844.422-.844.295 0 .422-.296.422-.984s.127-.985.422-.985c.313 0 .422-.328.422-1.265 0-.938.109-1.266.422-1.266.295 0 .422-.297.422-.985 0-.687.127-.984.422-.984.281 0 .422-.282.422-.844 0-.563.14-.844.422-.844.31 0 .422-.325.422-1.233 0-.997.107-1.261.562-1.38.46-.12.563-.384.563-1.439 0-.962.108-1.293.422-1.293.312 0 .422-.328.422-1.265 0-.938.109-1.266.422-1.266.318 0 .421-.344.421-1.407 0-1.062.104-1.406.422-1.406.319 0 .422-.344.422-1.407 0-1.062.104-1.406.422-1.406.313 0 .422-.328.422-1.266s.11-1.266.422-1.266c.332 0 .422-.391.422-1.828 0-1.641.058-1.829.563-1.829.5 0 .562-.187.562-1.687 0-1.313.094-1.688.422-1.688.34 0 .422-.438.422-2.251 0-1.812.082-2.25.422-2.25.34 0 .422-.437.422-2.25s.082-2.251.422-2.251c.345 0 .422-.484.422-2.672s.076-2.672.422-2.672c.357 0 .422-.688.422-4.501 0-4.313.023-4.501.562-4.501.557 0 .563-.187.563-16.455 0-16.268-.006-16.456-.563-16.456-.539 0-.562-.187-.562-4.501 0-3.813-.065-4.5-.422-4.5-.35 0-.422-.532-.422-3.095 0-2.562-.073-3.094-.422-3.094-.345 0-.422-.484-.422-2.672s-.076-2.672-.422-2.672c-.34 0-.422-.438-.422-2.251s-.082-2.25-.422-2.25c-.34 0-.422-.438-.422-2.25 0-2.063-.047-2.251-.562-2.251-.505 0-.563-.187-.563-1.828 0-1.438-.09-1.829-.422-1.829-.328 0-.422-.375-.422-1.687 0-1.313-.094-1.688-.422-1.688-.318 0-.422-.344-.422-1.407 0-1.062-.103-1.406-.422-1.406-.331 0-.422-.391-.422-1.829 0-1.437-.09-1.828-.421-1.828-.313 0-.422-.328-.422-1.266 0-.937-.11-1.266-.422-1.266-.305 0-.422-.312-.422-1.122 0-.819-.153-1.218-.563-1.475-.342-.213-.562-.655-.562-1.127 0-.503-.149-.776-.422-.776-.319 0-.422-.344-.422-1.407 0-1.062-.103-1.406-.422-1.406-.313 0-.422-.328-.422-1.266s-.11-1.266-.422-1.266c-.281 0-.422-.281-.422-.844 0-.562-.141-.844-.422-.844-.295 0-.422-.297-.422-.984 0-.688-.127-.985-.422-.985-.312 0-.422-.328-.422-1.266 0-1.078-.083-1.265-.562-1.265-.456 0-.563-.188-.563-.985 0-.687-.127-.984-.422-.984-.281 0-.422-.282-.422-.844 0-.563-.141-.844-.422-.844s-.422-.281-.422-.844-.14-.844-.422-.844c-.294 0-.422-.297-.422-.984 0-.688-.127-.985-.422-.985-.281 0-.422-.281-.422-.844 0-.562-.14-.844-.422-.844-.281 0-.421-.281-.421-.844 0-.656-.125-.844-.563-.844-.455 0-.563-.187-.563-.984 0-.688-.127-.985-.422-.985-.232 0-.422-.189-.422-.422 0-.232-.189-.421-.421-.421-.282 0-.422-.282-.422-.844 0-.563-.141-.844-.422-.844-.296 0-.422-.299-.422-1.001 0-.638-.109-.934-.301-.816-.165.102-.369-.08-.454-.405-.088-.337-.383-.591-.685-.591-.401 0-.529-.205-.529-.844 0-.563-.141-.844-.422-.844-.282 0-.422-.281-.422-.844 0-.562-.141-.844-.422-.844-.235 0-.422-.25-.422-.562 0-.313-.188-.563-.422-.563-.281 0-.422-.281-.422-.844 0-.562-.141-.844-.422-.844-.232 0-.422-.189-.422-.422 0-.232-.19-.421-.422-.421-.232 0-.422-.19-.422-.422 0-.235-.25-.422-.562-.422-.456 0-.563-.188-.563-.985 0-.688-.127-.984-.422-.984-.232 0-.422-.19-.422-.422 0-.232-.19-.422-.422-.422-.281 0-.422-.282-.422-.844 0-.563-.14-.844-.422-.844-.232 0-.422-.19-.422-.422 0-.232-.189-.422-.422-.422-.234 0-.421-.25-.421-.563 0-.312-.188-.562-.422-.562-.282 0-.422-.281-.422-.844 0-.656-.125-.844-.563-.844-.312 0-.563-.187-.563-.422 0-.232-.189-.422-.421-.422-.233 0-.422-.19-.422-.422 0-.232-.19-.422-.422-.422-.232 0-.422-.19-.422-.422 0-.232-.19-.422-.422-.422-.295 0-.422-.296-.422-.984s-.127-.985-.422-.985c-.232 0-.422-.189-.422-.422 0-.232-.19-.421-.422-.421-.232 0-.422-.19-.422-.422 0-.235-.25-.422-.563-.422-.312 0-.562-.188-.562-.422 0-.232-.19-.422-.422-.422-.234 0-.422-.25-.422-.563 0-.312-.188-.562-.422-.562-.253 0-.422-.26-.422-.647 0-.372-.352-.938-.832-1.336-.457-.379-.837-.848-.844-1.041-.006-.194-.265-.352-.574-.352-.313 0-.563-.187-.563-.422 0-.232-.19-.422-.422-.422-.234 0-.422-.25-.422-.562 0-.313-.187-.563-.422-.563-.232 0-.422-.19-.422-.422 0-.232-.189-.422-.421-.422-.233 0-.422-.19-.422-.422 0-.232-.19-.422-.422-.422-.232 0-.422-.19-.422-.422 0-.232-.19-.422-.422-.422-.232 0-.422-.19-.422-.422 0-.234-.25-.422-.563-.422-.312 0-.562-.187-.562-.421 0-.233-.19-.422-.422-.422-.235 0-.422-.25-.422-.563 0-.313-.188-.563-.422-.563-.232 0-.422-.189-.422-.422 0-.281-.281-.421-.844-.421s-.844-.141-.844-.422c0-.232-.19-.422-.422-.422-.232 0-.422-.19-.422-.422 0-.235-.25-.422-.562-.422-.313 0-.563-.188-.563-.422 0-.281-.281-.422-.844-.422-.562 0-.844-.141-.844-.422 0-.232-.19-.422-.422-.422-.234 0-.422-.25-.422-.563 0-.437-.187-.562-.843-.562-.563 0-.844-.141-.844-.422 0-.319-.344-.422-1.407-.422-1.063 0-1.406-.103-1.406-.422 0-.353-.579-.422-3.516-.422-2.938 0-3.517.069-3.517.422M164.838 21.519c0 .295-.297.422-.984.422-.688 0-.985.127-.985.422 0 .232-.19.422-.422.422-.312 0-.422.328-.422 1.266 0 .89.116 1.265.389 1.265.214 0 .456.254.537.563.081.309.349.563.595.563.247 0 .448.19.448.422 0 .281.282.422.844.422.563 0 .844.14.844.421 0 .282.281.422.844.422s.844.141.844.422c0 .235.25.422.562.422.313 0 .563.188.563.422 0 .232.19.422.422.422.234 0 .422.25.422.563 0 .312.187.562.422.562.232 0 .422.19.422.422 0 .232.19.422.422.422.232 0 .422.19.422.422 0 .232.19.422.422.422.281 0 .422.281.422.844s.14.844.422.844c.232 0 .421.19.421.422 0 .234.251.422.563.422.375 0 .563.187.563.562 0 .313.187.563.422.563.281 0 .422.281.422.844 0 .562.14.844.421.844.282 0 .422.281.422.844 0 .562.141.843.422.843.295 0 .422.297.422.985s.128.985.422.985c.282 0 .422.281.422.843 0 .563.141.844.422.844.313 0 .422.328.422 1.266 0 1.078.083 1.266.563 1.266.515 0 .562.187.562 2.25 0 1.813.082 2.251.422 2.251.356 0 .422.64.422 4.078s-.066 4.079-.422 4.079c-.34 0-.422.438-.422 2.25 0 2.063-.047 2.251-.562 2.251-.505 0-.563.187-.563 1.828 0 1.438-.09 1.829-.422 1.829-.312 0-.422.328-.422 1.265 0 .938-.109 1.266-.422 1.266-.294 0-.422.297-.422.985 0 .687-.127.984-.422.984-.312 0-.422.329-.422 1.266 0 .938-.109 1.266-.422 1.266-.281 0-.421.281-.421.844 0 .562-.141.844-.422.844-.295 0-.422.297-.422.984 0 .797-.107.985-.563.985-.437 0-.563.187-.563.844 0 .562-.14.844-.421.844-.282 0-.422.281-.422.843 0 .563-.141.844-.422.844-.295 0-.422.297-.422.985s-.128.984-.422.984c-.282 0-.422.282-.422.844 0 .563-.141.844-.422.844-.232 0-.422.19-.422.422 0 .232-.19.422-.422.422-.295 0-.422.297-.422.985 0 .797-.107.984-.563.984-.437 0-.562.188-.562.844 0 .563-.141.844-.422.844-.232 0-.422.176-.422.392 0 .215-.19.464-.422.553-.247.095-.422.517-.422 1.015 0 .571-.14.853-.422.853-.281 0-.422.281-.422.844 0 .562-.14.844-.422.844-.232 0-.422.189-.422.422 0 .234-.25.421-.562.421-.31 0-.548.095-.529.211.122.776-.094 1.477-.456 1.477-.234 0-.422.25-.422.563 0 .312-.187.562-.422.562-.281 0-.422.282-.422.844 0 .563-.14.844-.422.844-.281 0-.421.281-.421.844s-.141.844-.422.844c-.235 0-.422.25-.422.563 0 .312-.188.562-.422.562-.282 0-.422.281-.422.844 0 .656-.125.844-.563.844-.309 0-.562.176-.562.392 0 .215-.19.464-.422.553-.232.09-.422.483-.422.874 0 .446-.158.713-.422.713-.295 0-.422.296-.422.984s-.127.985-.422.985c-.232 0-.422.189-.422.422 0 .232-.19.421-.422.421-.281 0-.422.282-.422.844 0 .563-.141.844-.422.844-.232 0-.422.16-.422.355 0 .194-.253.512-.562.705-.318.199-.563.656-.563 1.052 0 .436-.16.701-.422.701-.281 0-.422.281-.422.844s-.141.844-.422.844c-.232 0-.422.19-.422.422 0 .232-.19.422-.422.422-.294 0-.422.297-.422.984 0 .688-.127.985-.422.985-.281 0-.421.281-.421.844 0 .562-.141.844-.422.844-.278 0-.422.277-.422.811 0 .574-.164.854-.563.958-.41.107-.563.384-.563 1.017 0 .586-.137.87-.421.87-.282 0-.422.282-.422.844 0 .563-.141.844-.422.844-.282 0-.422.282-.422.844 0 .563-.141.844-.422.844-.295 0-.422.297-.422.985 0 .687-.127.984-.422.984-.281 0-.422.281-.422.844 0 .656-.125.844-.563.844-.487 0-.562.187-.562 1.406 0 1.063-.103 1.407-.422 1.407-.313 0-.422.328-.422 1.266 0 .937-.11 1.265-.422 1.265-.319 0-.422.344-.422 1.407 0 1.063-.103 1.406-.422 1.406-.34 0-.422.438-.422 2.251 0 1.812-.082 2.25-.422 2.25-.365 0-.422 1.063-.422 7.876 0 6.814.057 7.876.422 7.876.347 0 .422.501.422 2.813 0 2.313.075 2.813.422 2.813.328 0 .422.375.422 1.688s.094 1.688.422 1.688c.319 0 .422.344.422 1.406 0 1.063.103 1.407.422 1.407.312 0 .422.328.422 1.266 0 1.078.083 1.265.562 1.265.456 0 .563.188.563.985 0 .688.127.985.422.985.281 0 .422.281.422.843 0 .563.14.844.422.844.281 0 .422.282.422.844 0 .563.14.844.422.844.294 0 .422.297.422.985 0 .687.127.984.422.984.281 0 .421.281.421.844 0 .656.125.844.563.844.313 0 .563.187.563.422 0 .232.189.422.422.422.294 0 .422.297.422.984 0 .688.127.985.421.985.233 0 .422.19.422.422 0 .232.19.422.422.422.282 0 .422.281.422.844 0 .562.141.843.422.843.232 0 .422.19.422.422 0 .232.19.422.422.422.232 0 .422.19.422.422 0 .235.25.422.563.422.455 0 .562.188.562.985 0 .687.127.984.422.984.232 0 .422.19.422.422 0 .232.19.422.422.422.232 0 .422.19.422.422 0 .232.19.422.422.422.232 0 .422.19.422.422 0 .232.19.422.422.422.232 0 .422.19.422.422 0 .232.175.422.389.422.214 0 .455.253.536.562.081.31.349.563.596.563.246 0 .448.19.448.422 0 .232.19.422.422.422.232 0 .422.19.422.422 0 .232.19.422.422.422.232 0 .422.19.422.422 0 .281.281.422.843.422.563 0 .844.14.844.422 0 .232.175.422.389.422.214 0 .456.253.537.562.081.31.349.563.595.563.247 0 .448.19.448.422 0 .232.19.422.422.422.232 0 .422.189.422.422 0 .281.282.421.844.421.563 0 .844.141.844.422 0 .232.19.422.422.422.232 0 .422.19.422.422 0 .295.297.422.984.422.688 0 .985.127.985.422 0 .232.19.422.422.422.234 0 .422.25.422.563 0 .437.187.562.844.562.562 0 .844.141.844.422 0 .295.297.422.984.422.688 0 .985.127.985.422 0 .281.281.422.844.422.562 0 .843.141.843.422s.282.422.844.422c.563 0 .844.141.844.422 0 .295.297.422.985.422.687 0 .984.127.984.422 0 .281.282.422.844.422.656 0 .844.125.844.562 0 .48.188.563 1.266.563.937 0 1.266.109 1.266.422 0 .319.343.422 1.406.422s1.407.103 1.407.422c0 .318.343.422 1.406.422s1.407.103 1.407.422c0 .312.328.422 1.265.422.938 0 1.266-.11 1.266-.422 0-.282.281-.422.844-.422.813 0 .844-.047.844-1.266 0-.938-.109-1.266-.422-1.266-.234 0-.422-.25-.422-.563 0-.312-.187-.562-.422-.562-.232 0-.422-.19-.422-.422 0-.319-.344-.422-1.406-.422-1.063 0-1.407-.103-1.407-.422 0-.281-.281-.422-.844-.422-.562 0-.844-.141-.844-.422s-.281-.422-.843-.422c-.563 0-.844-.14-.844-.422 0-.294-.297-.422-.985-.422-.687 0-.984-.127-.984-.422 0-.232-.19-.422-.422-.422-.235 0-.422-.25-.422-.562 0-.313-.188-.563-.422-.563-.232 0-.422-.19-.422-.422 0-.232-.19-.422-.422-.422-.232 0-.422-.19-.422-.422 0-.232-.19-.422-.422-.422-.232 0-.422-.189-.422-.421 0-.235-.25-.422-.562-.422-.313 0-.563-.188-.563-.422 0-.232-.19-.422-.422-.422-.232 0-.422-.19-.422-.422 0-.232-.19-.422-.422-.422-.295 0-.422-.297-.422-.985 0-.687-.127-.984-.422-.984-.232 0-.422-.19-.422-.422 0-.232-.19-.422-.422-.422-.281 0-.422-.281-.422-.844s-.14-.844-.422-.844c-.284 0-.421-.284-.421-.87 0-.634-.153-.91-.563-1.017-.399-.105-.563-.384-.563-.959 0-.533-.144-.811-.422-.811-.281 0-.422-.281-.422-.844 0-.562-.14-.843-.421-.843-.319 0-.422-.344-.422-1.407 0-1.063-.104-1.406-.422-1.406-.332 0-.422-.391-.422-1.829s-.09-1.828-.422-1.828c-.344 0-.422-.472-.422-2.558 0-2.322-.052-2.572-.563-2.705-.866-.227-.879-9.927-.013-9.927.477 0 .56-.231.633-1.758.058-1.223.191-1.737.435-1.688.244.049.352-.361.352-1.336 0-1.063.103-1.407.422-1.407.281 0 .422-.281.422-.843 0-.563.14-.844.422-.844.294 0 .421-.297.421-.985 0-.687.128-.984.422-.984.232 0 .422-.19.422-.422 0-.235.25-.422.563-.422.438 0 .563-.188.563-.844 0-.563.14-.844.421-.844.233 0 .422-.19.422-.422 0-.232.19-.422.422-.422.235 0 .422-.25.422-.563 0-.312.188-.562.422-.562.232 0 .422-.19.422-.422 0-.232.19-.422.422-.422.232 0 .422-.19.422-.422 0-.232.19-.422.422-.422.232 0 .422-.19.422-.422 0-.234.25-.422.563-.422.312 0 .562-.187.562-.422 0-.232.19-.422.422-.422.232 0 .422-.189.422-.422 0-.232.19-.421.422-.421.234 0 .422-.251.422-.563 0-.313.187-.563.422-.563.232 0 .422-.19.422-.422 0-.232.19-.422.422-.422.232 0 .422-.189.422-.421 0-.233.19-.422.422-.422.232 0 .422-.19.422-.422 0-.235.25-.422.562-.422.313 0 .563-.188.563-.422 0-.282.281-.422.844-.422.562 0 .843-.141.843-.422 0-.232.19-.422.422-.422.235 0 .422-.25.422-.563 0-.312.188-.562.422-.562.232 0 .422-.19.422-.422 0-.232.19-.422.422-.422.232 0 .422-.19.422-.422 0-.234.25-.422.563-.422.312 0 .562-.188.562-.422 0-.232.19-.422.422-.422.232 0 .422-.19.422-.422 0-.232.19-.422.422-.422.235 0 .422-.25.422-.562 0-.313.188-.563.422-.563.232 0 .422-.19.422-.422 0-.232.19-.422.422-.422.232 0 .422-.19.422-.422 0-.234.25-.422.562-.422.313 0 .563-.187.563-.422 0-.232.19-.422.422-.422.232 0 .422-.189.422-.422 0-.232.19-.421.422-.421.295 0 .422-.297.422-.985s.127-.985.422-.985c.281 0 .422-.281.422-.843 0-.563.14-.844.422-.844.281 0 .422-.282.422-.844 0-.563.14-.844.421-.844.332 0 .422-.391.422-1.828 0-1.641.058-1.829.563-1.829.539 0 .563-.187.563-4.386 0-4.15-.031-4.395-.563-4.534-.482-.126-.563-.383-.563-1.802 0-1.283-.094-1.655-.422-1.655-.294 0-.421-.297-.421-.984 0-.688-.128-.985-.422-.985-.232 0-.422-.19-.422-.422 0-.232-.123-.422-.272-.422-.354 0-2.26-1.906-2.26-2.259 0-.15-.253-.272-.563-.272-.455 0-.562-.188-.562-.985 0-.938.047-.984.984-.984.688 0 .985-.128.985-.422 0-.282.281-.422.844-.422.562 0 .844.14.844.422 0 .294.297.422.984.422.688 0 .985.127.985.421 0 .282.281.422.844.422.656 0 .843.125.843.563 0 .438.188.563.844.563.563 0 .844.14.844.422 0 .232.19.421.422.421.232 0 .422.19.422.422 0 .235.25.422.563.422.312 0 .562.188.562.422 0 .232.19.422.422.422.232 0 .422.19.422.422 0 .232.19.422.422.422.232 0 .422.19.422.422 0 .232.19.422.422.422.238 0 .422.252.422.579 0 .339.125.502.3.394.165-.102.37.08.455.405.088.337.383.591.684.591.292 0 .53.19.53.422 0 .232.19.422.422.422.232 0 .422.19.422.422 0 .232.19.422.422.422.281 0 .422.281.422.844 0 .562.14.844.422.844s.422.282.422.852c0 .499.175.92.422 1.015.24.092.422.512.422.976 0 .535.144.813.421.813.285 0 .422.285.422.871 0 .633.153.91.563 1.017.482.126.563.384.563 1.802 0 1.284.094 1.655.422 1.655.345 0 .421.484.421 2.672s-.076 2.673-.421 2.673c-.34 0-.422.433-.422 2.217 0 1.981-.06 2.233-.563 2.365-.537.14-.563.383-.563 5.377 0 5.043.021 5.23.563 5.23.488 0 .563.188.563 1.407 0 1.063.103 1.406.422 1.406.281 0 .421.282.421.844 0 .563.141.844.422.844.232 0 .422.19.422.422 0 .232.19.422.422.422.232 0 .422.19.422.422 0 .232.19.422.422.422.235 0 .422.25.422.562 0 .31.095.548.211.53 1.102-.174 2.602.088 2.602.455 0 .355.625.422 3.938.422s3.938-.067 3.938-.422c0-.305.313-.422 1.123-.422.818 0 1.218-.153 1.474-.563.193-.309.511-.562.706-.562.195 0 .354-.19.354-.422 0-.281.281-.422.844-.422s.844-.141.844-.422c0-.232.19-.422.422-.422.281 0 .422-.281.422-.844 0-.656.125-.844.562-.844.535 0 .563-.187.563-3.795 0-3.49-.045-3.823-.563-4.146-.419-.262-.562-.656-.562-1.55 0-.877-.113-1.198-.422-1.198-.319 0-.422-.344-.422-1.406 0-1.063-.103-1.407-.422-1.407-.313 0-.422-.328-.422-1.266 0-1.259.005-1.265.985-1.265.687 0 .984.127.984.422 0 .281.281.422.844.422s.844.14.844.421c0 .233.19.422.422.422.232 0 .422.19.422.422 0 .232.19.422.422.422.232 0 .422.19.422.422 0 .232.189.422.422.422.232 0 .421.19.421.422 0 .235.25.422.563.422.375 0 .563.188.563.563 0 .312.187.562.422.562.281 0 .422.282.422.844 0 .563.14.844.421.844.233 0 .422.19.422.422 0 .232.19.422.422.422.295 0 .422.297.422.984 0 .688.128.985.422.985.282 0 .422.281.422.844 0 .562.141.844.422.844.313 0 .422.328.422 1.266 0 1.078.083 1.265.563 1.265.487 0 .562.188.562 1.407 0 1.062.103 1.406.422 1.406.332 0 .422.391.422 1.829 0 1.437.09 1.828.422 1.828.35 0 .422.531.422 3.094 0 2.563.072 3.095.422 3.095.345 0 .422.484.422 2.672s-.077 2.672-.422 2.672c-.346 0-.422.485-.422 2.672 0 2.188-.077 2.673-.422 2.673-.332 0-.422.39-.422 1.828 0 1.438-.09 1.829-.422 1.829-.281 0-.422.281-.422.843 0 .657-.125.844-.562.844-.31 0-.548.095-.53.211.174 1.102-.088 2.602-.455 2.602-.281 0-.422.282-.422.844 0 .563-.14.844-.422.844-.232 0-.422.176-.422.392 0 .215-.19.465-.422.554-.246.094-.422.516-.422 1.014 0 .571-.139.853-.422.853-.232 0-.421.19-.421.422 0 .232-.19.422-.422.422-.282 0-.422.281-.422.844 0 .656-.125.844-.563.844-.313 0-.563.187-.563.422 0 .232-.189.421-.421.421-.295 0-.422.297-.422.985s-.128.985-.422.985c-.232 0-.422.189-.422.421 0 .233-.19.422-.422.422-.232 0-.422.19-.422.422 0 .232-.19.422-.422.422-.232 0-.422.19-.422.422 0 .232-.19.422-.422.422-.232 0-.422.14-.422.311 0 .365-1.436 1.55-1.753 1.447-.119-.038-.216.183-.216.493 0 .312-.188.562-.422.562-.232 0-.422.19-.422.422 0 .232-.19.422-.422.422-.232 0-.422.19-.422.422 0 .232-.19.422-.422.422-.232 0-.422.19-.422.422 0 .232-.19.422-.422.422-.232 0-.422.121-.422.268 0 .349-1.351 1.701-1.7 1.701-.148 0-.269.38-.269.844 0 .562-.14.844-.422.844-.328 0-.421.375-.421 1.687 0 1.313.093 1.688.421 1.688.235 0 .422.25.422.563 0 .455.188.562.985.562.688 0 .984.128.984.422 0 .282.282.422.844.422.525 0 .818-.133.774-.351-.047-.233.381-.381 1.266-.438 1.106-.071 1.336-.18 1.336-.633 0-.438.197-.547.984-.547.688 0 .985-.127.985-.422 0-.281.281-.422.844-.422.562 0 .844-.14.844-.422 0-.232.19-.422.422-.422.232 0 .422-.19.422-.422 0-.281.281-.422.843-.422.563 0 .844-.14.844-.421 0-.233.194-.422.431-.422s.504-.19.593-.422c.092-.241.512-.422.975-.422.627 0 .814-.13.814-.563 0-.312.188-.562.422-.562.232 0 .422-.19.422-.422 0-.232.19-.422.422-.422.232 0 .422-.19.422-.422 0-.295.297-.422.985-.422.687 0 .984-.127.984-.422 0-.232.19-.422.422-.422.232 0 .422-.19.422-.422 0-.232.19-.422.422-.422.234 0 .422-.25.422-.563 0-.312.187-.562.422-.562.232 0 .422-.19.422-.422 0-.232.19-.422.422-.422.232 0 .422-.19.422-.422 0-.234.25-.422.562-.422.313 0 .563-.187.563-.422 0-.232.19-.422.422-.422.232 0 .422-.19.422-.422 0-.232.19-.422.422-.422.232 0 .422-.19.422-.422 0-.232.189-.422.421-.422.235 0 .422-.25.422-.562 0-.313.188-.563.422-.563.232 0 .422-.19.422-.422 0-.232.19-.422.422-.422.232 0 .422-.19.422-.422 0-.234.25-.422.563-.422.312 0 .562-.187.562-.421 0-.233.19-.422.422-.422.232 0 .422-.177.422-.392 0-.216.19-.465.422-.554.247-.095.422-.516.422-1.015 0-.57.14-.852.422-.852.232 0 .422-.19.422-.422 0-.232.19-.422.422-.422.232 0 .422-.19.422-.422 0-.232.19-.422.422-.422.281 0 .422-.281.422-.844 0-.554.142-.844.412-.844.226 0 .549-.257.717-.57.168-.314.426-.496.573-.406.149.093.267-.275.267-.836 0-.702.126-1.001.422-1.001.281 0 .422-.281.422-.844 0-.562.14-.844.422-.844.294 0 .422-.296.422-.984s.127-.985.422-.985c.281 0 .421-.281.421-.844 0-.562.141-.843.422-.843.282 0 .422-.282.422-.844 0-.657.125-.844.563-.844.455 0 .563-.188.563-.985 0-.687.127-.984.421-.984.313 0 .422-.328.422-1.266s.11-1.266.422-1.266c.319 0 .422-.344.422-1.406 0-1.063.103-1.407.422-1.407.328 0 .422-.375.422-1.688 0-1.312.094-1.687.422-1.687.332 0 .422-.391.422-1.829 0-1.641.058-1.828.563-1.828.528 0 .562-.188.562-3.094 0-2.512.077-3.095.407-3.095.629 0 .65-17.194.022-17.715-.342-.284-.429-1.061-.429-3.838 0-3.294-.03-3.482-.562-3.482-.523 0-.563-.187-.563-2.672 0-2.188-.076-2.672-.422-2.672-.332 0-.422-.391-.422-1.829 0-1.437-.09-1.828-.422-1.828-.312 0-.422-.328-.422-1.266s-.109-1.266-.422-1.266c-.318 0-.422-.344-.422-1.406 0-1.063-.103-1.407-.422-1.407-.312 0-.421-.328-.421-1.266 0-1.078-.084-1.265-.563-1.265-.455 0-.563-.188-.563-.985 0-.688-.127-.984-.422-.984-.312 0-.422-.329-.422-1.266 0-.938-.109-1.266-.421-1.266-.282 0-.422-.281-.422-.844s-.141-.844-.422-.844c-.235 0-.422-.25-.422-.562 0-.313-.188-.563-.422-.563-.282 0-.422-.281-.422-.844s-.141-.844-.422-.844-.422-.281-.422-.844c0-.656-.125-.844-.563-.844-.375 0-.562-.187-.562-.562 0-.313-.188-.563-.422-.563-.281 0-.422-.281-.422-.844 0-.562-.141-.844-.422-.844-.232 0-.422-.189-.422-.421 0-.233-.19-.422-.422-.422-.281 0-.422-.282-.422-.844 0-.563-.141-.844-.422-.844-.234 0-.422-.25-.422-.563 0-.312-.187-.562-.422-.562-.232 0-.422-.19-.422-.422 0-.235-.25-.422-.562-.422-.313 0-.563-.188-.563-.422 0-.232-.19-.422-.422-.422-.281 0-.422-.281-.422-.844s-.14-.844-.422-.844c-.232 0-.422-.19-.422-.422 0-.232-.189-.422-.422-.422-.234 0-.421-.25-.421-.562 0-.313-.188-.563-.422-.563-.232 0-.422-.19-.422-.422 0-.232-.19-.422-.422-.422-.232 0-.422-.19-.422-.422 0-.234-.25-.422-.563-.422-.312 0-.562-.187-.562-.422 0-.232-.19-.422-.422-.422-.232 0-.422-.189-.422-.422 0-.232-.19-.421-.422-.421-.235 0-.422-.25-.422-.563 0-.313-.188-.563-.422-.563-.232 0-.422-.19-.422-.422 0-.232-.19-.422-.422-.422-.232 0-.422-.189-.422-.421 0-.235-.25-.422-.562-.422-.313 0-.563-.188-.563-.422 0-.232-.19-.422-.422-.422-.232 0-.422-.19-.422-.422 0-.232-.19-.422-.422-.422-.232 0-.422-.19-.422-.422 0-.232-.19-.422-.422-.422-.234 0-.422-.25-.422-.563 0-.437-.187-.562-.844-.562-.562 0-.843-.141-.843-.422 0-.235-.251-.422-.563-.422-.313 0-.563-.188-.563-.422 0-.232-.19-.422-.422-.422-.232 0-.422-.19-.422-.422 0-.281-.281-.422-.843-.422-.563 0-.844-.141-.844-.422s-.282-.422-.844-.422c-.563 0-.844-.14-.844-.422 0-.331-.391-.422-1.828-.422h-1.829v1.688c0 1.313.094 1.688.422 1.688.319 0 .422.346.422 1.423 0 .937.103 1.36.3 1.237.166-.102.37.08.455.406.088.336.383.591.684.591.401 0 .53.205.53.844 0 .562.141.843.422.843s.422.282.422.844c0 .563.141.844.422.844.295 0 .422.297.422.985 0 .687.127.984.422.984.312 0 .422.328.422 1.266s.109 1.266.422 1.266c.318 0 .422.344.422 1.406 0 1.063.103 1.407.422 1.407.352 0 .421.578.421 3.516s-.069 3.516-.421 3.516c-.295 0-.422.297-.422.985 0 .687-.128.984-.422.984-.232 0-.422.19-.422.422 0 .232-.19.422-.422.422-.232 0-.422.19-.422.422 0 .232-.19.422-.422.422-.232 0-.422.19-.422.422 0 .284-.284.422-.87.422-.634 0-.911.153-1.018.563-.135.519-.383.562-3.208.562-2.874 0-3.062-.034-3.062-.562 0-.313-.187-.563-.422-.563-.232 0-.421-.19-.421-.422 0-.232-.19-.422-.422-.422-.232 0-.422-.19-.422-.422 0-.234-.25-.422-.563-.422-.438 0-.563-.187-.563-.844 0-.562-.14-.844-.421-.844-.295 0-.422-.297-.422-.984 0-.688-.128-.985-.422-.985-.282 0-.422-.281-.422-.844 0-.562-.141-.843-.422-.843-.319 0-.422-.344-.422-1.407 0-1.063-.103-1.406-.422-1.406-.328 0-.422-.375-.422-1.688s-.094-1.688-.422-1.688c-.34 0-.422-.437-.422-2.25 0-2.063-.047-2.251-.563-2.251-.523 0-.562-.187-.562-2.672 0-2.188-.077-2.672-.422-2.672-.34 0-.422-.438-.422-2.251 0-1.812-.082-2.25-.422-2.25-.345 0-.422-.484-.422-2.672s-.076-2.672-.422-2.672c-.332 0-.422-.391-.422-1.829s-.09-1.828-.422-1.828c-.331 0-.422-.391-.422-1.829 0-1.437-.09-1.828-.422-1.828-.328 0-.422-.375-.422-1.688 0-1.5-.062-1.688-.562-1.688-.456 0-.563-.187-.563-.984 0-.688-.127-.985-.422-.985-.312 0-.422-.328-.422-1.266 0-.937-.109-1.265-.422-1.265-.281 0-.421-.282-.421-.844 0-.563-.141-.844-.422-.844-.295 0-.422-.297-.422-.985 0-.687-.128-.984-.422-.984-.282 0-.422-.281-.422-.844s-.141-.844-.422-.844c-.232 0-.422-.19-.422-.422 0-.234-.25-.422-.563-.422-.455 0-.562-.187-.562-.984 0-.688-.128-.985-.422-.985-.232 0-.422-.19-.422-.422 0-.232-.19-.422-.422-.422-.281 0-.422-.281-.422-.844 0-.562-.141-.843-.422-.843-.232 0-.422-.19-.422-.422 0-.233-.19-.422-.422-.422-.232 0-.422-.202-.422-.449 0-.246-.253-.514-.562-.595-.31-.081-.563-.322-.563-.536 0-.214-.19-.389-.422-.389-.281 0-.422-.282-.422-.844 0-.563-.141-.844-.422-.844-.232 0-.422-.19-.422-.422 0-.232-.19-.422-.422-.422-.232 0-.422-.19-.422-.422 0-.232-.19-.422-.422-.422-.234 0-.422-.25-.422-.563 0-.309-.094-.547-.211-.529-.875.138-1.758-.09-1.758-.455 0-.232-.189-.422-.422-.422-.232 0-.421-.19-.421-.422 0-.232-.19-.422-.422-.422-.232 0-.422-.19-.422-.422 0-.232-.19-.422-.422-.422-.232 0-.422-.19-.422-.422 0-.281-.282-.422-.844-.422-.563 0-.844-.14-.844-.422 0-.234-.25-.422-.563-.422-.375 0-.562-.187-.562-.562 0-.438-.188-.563-.844-.563-.563 0-.844-.14-.844-.422 0-.281-.281-.422-.844-.422-.562 0-.844-.14-.844-.422 0-.294-.297-.421-.984-.421-.688 0-.985-.128-.985-.422 0-.282-.281-.422-.844-.422-.562 0-.844-.141-.844-.422 0-.278-.277-.422-.811-.422-.574 0-.854-.164-.958-.563-.12-.459-.383-.562-1.439-.562-.961 0-1.292-.109-1.292-.422 0-.282-.282-.422-.844-.422-.563 0-.844-.141-.844-.422 0-.332-.391-.422-1.828-.422-1.438 0-1.829-.09-1.829-.422 0-.34-.437-.422-2.25-.422s-2.251-.082-2.251-.422c0-.355-.625-.422-3.938-.422s-3.938.067-3.938.422m-50.07 211.533c0 .324-.359.422-1.545.422-1.24 0-1.614.111-1.896.563-.193.309-.511.562-.705.562-.195 0-.355.19-.355.422 0 .281-.281.422-.844.422-.562 0-.844.141-.844.422 0 .232-.189.422-.421.422-.282 0-.422.281-.422.844 0 .562-.141.844-.422.844-.232 0-.422.159-.422.354 0 .195-.253.512-.563.706-.406.253-.562.656-.562 1.444 0 .711-.148 1.149-.422 1.254-.324.124-.422.657-.422 2.281 0 1.695.084 2.118.422 2.118.312 0 .422.328.422 1.266 0 1.078.083 1.266.562 1.266.438 0 .563.187.563.844 0 .562.14.844.422.844.234 0 .422.25.422.562 0 .313.187.563.422.563.232 0 .421.19.421.422 0 .232.19.422.422.422.232 0 .422.19.422.422 0 .232.19.422.422.422.232 0 .422.189.422.421 0 .295.297.422.985.422.687 0 .984.128.984.422 0 .375 10.799.422 95.5.422 84.7 0 95.499-.047 95.499-.422 0-.281.281-.422.844-.422.562 0 .844-.14.844-.422 0-.232.19-.421.422-.421.232 0 .422-.19.422-.422 0-.232.189-.422.421-.422.233 0 .422-.19.422-.422 0-.232.19-.422.422-.422.235 0 .422-.25.422-.563 0-.375.188-.562.563-.562.437 0 .562-.188.562-.844 0-.563.141-.844.422-.844.313 0 .422-.328.422-1.266s.11-1.266.422-1.266c.332 0 .422-.39.422-1.828 0-1.438-.09-1.829-.422-1.829-.332 0-.422-.392-.422-1.845 0-1.236-.099-1.783-.3-1.659-.165.102-.37-.08-.455-.405-.088-.337-.382-.591-.684-.591-.401 0-.53-.205-.53-.844 0-.563-.14-.844-.422-.844-.232 0-.422-.19-.422-.422 0-.281-.281-.422-.843-.422-.563 0-.844-.141-.844-.422 0-.232-.19-.422-.422-.422-.235 0-.422-.25-.422-.562 0-.31-.095-.548-.211-.53-1.26.199-3.446-.089-3.446-.455 0-.374-10.502-.422-92.827-.422s-92.827.048-92.827.422"/></svg>